<svg width="640" height="640" viewBox="0 0 640 640" fill="none" xmlns="http://www.w3.org/2000/svg">
<path fill-rule="evenodd" clip-rule="evenodd" d="M509.013 37.8284C503.671 36.0355 497.975 35.552 492.407 36.4184C486.838 37.2848 481.559 39.4759 477.013 42.8074C467.698 49.5645 462.222 60.4114 462.222 71.9697V376.609C440.064 365.82 415.755 360.179 391.111 360.108C320.356 360.108 248.889 407.834 248.889 482.554C248.889 557.273 320.356 605 391.111 605C461.867 605 533.333 557.273 533.333 482.554V135.593C552.462 153.375 568.889 178.946 568.889 216.039C568.889 235.954 584.818 252.065 604.444 252.065C624.071 252.065 640 235.954 640 216.039C640 148.29 606.009 102.946 573.867 75.8461C556.368 61.1622 536.758 49.1972 515.698 40.3535L509.796 38.1129L509.333 37.9351L509.156 37.864H509.084L509.013 37.8284ZM35.5556 71.9697C15.9289 71.9697 0 88.1156 0 107.996C0 127.912 15.9289 144.022 35.5556 144.022H355.556C375.182 144.022 391.111 127.912 391.111 107.996C391.111 88.0801 375.182 72.0052 355.556 72.0052L35.5556 71.9697ZM35.5556 216.039C15.9289 216.039 0 232.185 0 252.065C0 271.981 15.9289 288.091 35.5556 288.091H355.556C375.182 288.091 391.111 271.945 391.111 252.065C391.111 232.149 375.182 216.039 355.556 216.039H35.5556ZM35.5556 360.072C15.9289 360.072 0 376.218 0 396.134C0 416.014 15.9289 432.124 35.5556 432.124H177.778C197.404 432.124 213.333 416.014 213.333 396.134C213.333 376.218 197.404 360.108 177.778 360.108L35.5556 360.072Z" fill="white"/>
</svg>
