<svg width="640" height="640" viewBox="0 0 640 640" fill="none" xmlns="http://www.w3.org/2000/svg">
<rect x="70" y="425" width="500" height="80" rx="19" fill="white"/>
<path fill-rule="evenodd" clip-rule="evenodd" d="M442.904 199.786L442.904 199.786L442.905 199.785L489.331 153.362C504.48 138.213 529.403 138.213 545.041 153.362C560.191 168.51 560.191 193.433 545.041 208.581L504.969 248.164C539.666 280.905 560.191 321.464 568.498 369.354C572.897 395.742 564.589 406.004 535.267 406.004H109.129C77.853 406.493 67.1018 395.254 72.4774 367.888C81.2738 323.908 99.3553 286.28 127.211 255.983L81.7624 211.025C66.613 195.876 66.613 170.954 81.7624 155.805C96.9119 140.656 121.835 140.656 137.473 155.805L183.899 202.229C185.854 204.183 187.808 206.627 189.274 209.07C198.071 204.183 207.845 199.785 217.618 195.876C294.343 165.578 369.113 168.999 439.484 203.695C440.461 202.229 441.438 201.252 442.904 199.786ZM239 316C239 333.673 224.673 348 207 348C189.327 348 175 333.673 175 316C175 298.327 189.327 284 207 284C224.673 284 239 298.327 239 316ZM432 348C449.673 348 464 333.673 464 316C464 298.327 449.673 284 432 284C414.327 284 400 298.327 400 316C400 333.673 414.327 348 432 348Z" fill="white"/>
</svg>
