<svg width="640" height="640" viewBox="0 0 640 640" fill="none" xmlns="http://www.w3.org/2000/svg">
<path d="M0 187C0 151.8 28.8 123 64 123H145.503C154.785 123 163.687 119.313 170.251 112.749L213.749 69.2513C220.313 62.6875 229.215 59 238.497 59H401.503C410.785 59 419.687 62.6875 426.251 69.2513L469.749 112.749C476.313 119.313 485.215 123 494.497 123H576C592.974 123 609.252 129.743 621.255 141.745C633.257 153.747 640 170.026 640 187V507C640 523.974 633.257 540.252 621.255 552.255C609.252 564.257 592.974 571 576 571H64C47.0261 571 30.7475 564.257 18.7452 552.255C6.74284 540.252 0 523.974 0 507V187ZM320 507C362.435 507 403.131 490.143 433.137 460.137C463.143 430.131 480 389.435 480 347C480 304.565 463.143 263.869 433.137 233.863C403.131 203.857 362.435 187 320 187C277.565 187 236.869 203.857 206.863 233.863C176.857 263.869 160 304.565 160 347C160 389.435 176.857 430.131 206.863 460.137C236.869 490.143 277.565 507 320 507ZM320 443C307.393 443 294.91 440.517 283.262 435.692C271.615 430.868 261.032 423.797 252.118 414.882C243.203 405.968 236.132 395.385 231.308 383.738C226.483 372.09 224 359.607 224 347C224 334.393 226.483 321.91 231.308 310.262C236.132 298.615 243.203 288.032 252.118 279.118C261.032 270.203 271.615 263.132 283.262 258.308C294.91 253.483 307.393 251 320 251C345.461 251 369.879 261.114 387.882 279.118C405.886 297.121 416 321.539 416 347C416 372.461 405.886 396.879 387.882 414.882C369.879 432.886 345.461 443 320 443Z" fill="white"/>
</svg>
