<svg width="640" height="640" viewBox="0 0 640 640" fill="none" xmlns="http://www.w3.org/2000/svg">
<path d="M90.2225 339.832L189.617 37.8734C190.967 33.7718 194.797 31 199.115 31H334.289C341.098 31 345.916 37.6568 343.789 44.1249L316.906 125.845C316.71 126.441 316.455 127.015 316.144 127.56V127.56C315.833 128.107 315.577 128.683 315.381 129.281L237.034 368.019C234.912 374.486 239.729 381.138 246.535 381.138H294.488C301.772 381.138 306.609 388.683 303.579 395.307C275.771 456.099 253.566 504.923 236.965 541.778C235.335 545.398 231.649 547.715 227.681 547.598C90.243 543.556 52.1003 454.981 86.4806 350.501M238.03 548C236.769 548 236.065 546.544 236.848 545.556L410.413 326.5C415.607 319.945 410.939 310.289 402.576 310.289H358.985C351.705 310.289 346.865 302.76 349.888 296.137L410.021 164.38C411.785 160.514 415.841 158.17 420.061 158.669C534.303 172.178 587.552 253.202 555.161 350.774C519.925 457.73 377.106 548 238.03 548V548Z" fill="white"/>
</svg>
