<svg width="640" height="640" viewBox="0 0 640 640" fill="none" xmlns="http://www.w3.org/2000/svg">
<path d="M253.194 49C129.85 49 27 133.715 27 241.021C27 295.917 57.0838 343.764 99.8118 378.689C97.0528 397.246 89.4984 414.765 77.8936 429.518C73.1576 435.572 68.2084 441.457 63.0553 447.161C60.3877 449.969 58.0154 453.042 55.9754 456.333C54.6861 458.434 52.673 460.784 51.7456 465.528C50.7956 470.249 52.0849 478.02 55.9754 483.871L58.8028 488.819L64.4577 491.643C84.2496 501.515 105.625 499.775 125.259 494.466C144.87 489.135 163.734 480.008 181.807 470.452C199.857 460.919 217.025 450.934 230.574 443.637C232.474 442.621 233.696 442.372 235.528 441.514C271.199 490.49 336.523 523.405 409.403 523.405C410.104 523.495 410.76 523.405 411.529 523.405C440.934 523.405 535.936 620.41 592.484 582.005C594.746 572.992 542.767 550.378 540.166 483.171C584.432 451.928 613 405.459 613 353.975C613 277.799 552.471 214.861 471.629 192.316C446.046 109.182 357.107 49 253.194 49ZM253.194 94.1814C356.044 94.1814 434.149 163.083 434.149 241.021C434.149 318.959 356.044 387.861 253.194 387.861C234.827 387.861 224.286 395.361 209.357 403.403C194.429 411.423 177.306 421.385 160.59 430.218C146.114 437.854 132.316 443.728 119.604 447.862C131.976 430.015 144.892 406.543 147.154 373.742L147.878 361.023L137.269 353.274C96.9617 325.059 72.2387 284.463 72.2387 241.021C72.2387 163.083 150.343 94.1814 253.194 94.1814Z" fill="white"/>
</svg>
