<svg width="640" height="640" viewBox="0 0 640 640" fill="none" xmlns="http://www.w3.org/2000/svg">
<path d="M322.37 392.482H286.596C284.513 392.492 282.524 391.708 281.123 390.328C279.722 388.947 279.042 387.098 279.25 385.241L282.408 352.986C282.716 349.557 285.916 346.918 289.754 346.929H325.528C327.611 346.92 329.6 347.703 331.001 349.084C332.401 350.465 333.082 352.314 332.874 354.171L329.715 386.426C329.408 389.855 326.208 392.493 322.37 392.482ZM328.103 329.329H291.664C287.639 329.329 284.376 326.188 284.376 322.313L294.288 213.34C294.732 209.796 297.869 207.139 301.576 207.165H338.015C342.04 207.165 345.303 210.306 345.303 214.182L335.1 323.225C334.637 326.636 331.674 329.221 328.103 329.329ZM542.362 202.253C546.24 206.755 548.134 212.617 547.62 218.521L533.377 380.413C532.92 385.708 530.557 390.663 526.722 394.367L410.251 506.792C406.093 510.79 400.53 513.02 394.744 513.008H270.753L161.603 613L170.056 512.942H114.549C108.315 512.947 102.366 510.35 98.1513 505.785C93.937 501.221 91.8455 495.107 92.3868 488.936L126.263 104.84C127.425 93.5517 137.006 84.9751 148.426 85.0001H431.083C437.585 84.9982 443.763 87.8256 447.988 92.7375L542.362 202.253ZM456.041 349.529L465.092 249.603C465.443 243.679 463.38 237.863 459.368 233.467L406.125 172.361C401.906 167.533 395.788 164.759 389.353 164.756H221.636C210.216 164.731 200.635 173.307 199.473 184.595L179.507 409.445C179.047 415.597 181.167 421.664 185.363 426.21C189.56 430.756 195.461 433.377 201.669 433.451H366.591C372.313 433.465 377.82 431.285 381.965 427.367L449.385 363.549C453.235 359.828 455.6 354.848 456.041 349.529Z" fill="white"/>
</svg>
