<svg width="640" height="640" viewBox="0 0 640 640" fill="none" xmlns="http://www.w3.org/2000/svg">
<path d="M398.534 290.599C394.625 294.508 388.287 294.504 384.383 290.59L216.648 122.42C208.406 114.157 218.585 100.875 228.707 106.685L442.115 229.186C447.826 232.465 448.864 240.274 444.207 244.93L398.534 290.599ZM109.574 61.1785C106.483 58.0962 101.672 57.2821 98.1753 59.8956C88.2708 67.299 82 78.5192 82 92.407V547.593C82 561.477 88.2789 572.695 98.1727 580.098C101.67 582.715 106.485 581.901 109.577 578.816L361.991 327.024C365.908 323.116 365.907 316.769 361.989 312.862L109.574 61.1785ZM542.987 288.701L488.817 257.344C484.926 255.091 480.01 255.712 476.802 258.862L421.732 312.922C417.739 316.841 417.739 323.274 421.732 327.194L476.851 381.302C480.036 384.428 484.908 385.066 488.79 382.863L543.55 351.797C543.999 351.543 544.431 351.255 544.828 350.924C562.791 335.952 562.576 303.294 542.987 288.701ZM216.665 517.712C208.423 525.975 218.601 539.257 228.723 533.447L442.131 410.946C447.843 407.667 448.881 399.858 444.223 395.202L398.551 349.533C394.642 345.624 388.303 345.628 384.4 349.542L216.665 517.712Z" fill="white"/>
</svg>
