<svg width="640" height="640" viewBox="0 0 640 640" fill="none" xmlns="http://www.w3.org/2000/svg">
<path d="M534.507 197.742C531.132 200.352 471.557 233.821 471.557 308.243C471.557 394.323 547.364 424.776 549.633 425.531C549.284 427.387 537.59 467.237 509.664 507.841C484.764 543.572 458.758 579.246 419.196 579.246C379.635 579.246 369.454 556.334 323.783 556.334C279.277 556.334 263.452 580 227.265 580C191.078 580 165.828 546.937 136.797 506.333C103.169 458.652 76 384.578 76 314.275C76 201.512 149.538 141.708 221.912 141.708C260.368 141.708 292.425 166.883 316.569 166.883C339.55 166.883 375.388 140.2 419.138 140.2C435.719 140.2 495.294 141.708 534.507 197.742ZM398.368 92.4612C416.462 71.0571 429.261 41.3581 429.261 11.6592C429.261 7.54075 428.912 3.36434 428.156 0C398.718 1.10211 363.694 19.548 342.575 43.9684C325.994 62.7623 310.519 92.4612 310.519 122.566C310.519 127.091 311.275 131.615 311.624 133.065C313.486 133.413 316.511 133.819 319.536 133.819C345.949 133.819 379.169 116.186 398.368 92.4612Z" fill="white"/>
</svg>
