<svg width="640" height="640" viewBox="0 0 640 640" fill="none" xmlns="http://www.w3.org/2000/svg">
<g clip-path="url(#clip0_2711_73)">
<path d="M577.57 94.3901C575.8 92.529 573.67 91.0484 571.31 90.0385C568.949 89.0287 566.408 88.5108 563.841 88.5165H563.69C557.392 89.8274 551.724 92.0373 546.686 95.1463L546.913 95.0203C538.382 99.3225 529.347 104.146 519.808 109.49C509.441 115.195 498.561 119.913 487.312 123.581L485.927 123.985C474.303 128.107 462.084 130.304 449.753 130.488H449.653L448.393 130.514C438.997 130.514 430.105 128.346 422.195 124.464L422.548 124.615C401.969 114.514 380.727 105.831 358.967 98.6251L355.088 97.4907C335.628 91.4873 315.371 88.47 295.008 88.5417H293.371H293.446C247.376 90.599 202.445 103.539 162.33 126.304L163.766 125.548C153.69 130.539 146.586 134.396 141.951 137.244L137.341 103.44C145.18 96.6422 150.673 87.54 153.036 77.4327C155.398 67.3253 154.509 56.7294 150.496 47.1575C146.483 37.5857 139.551 29.5271 130.689 24.1323C121.827 18.7374 111.489 16.282 101.15 17.1165C90.8104 17.9511 80.9988 22.0329 73.1156 28.7794C65.2324 35.5258 59.6805 44.5921 57.2524 54.6838C54.8242 64.7756 55.6441 75.3771 59.5948 84.9749C63.5455 94.5727 70.4252 102.676 79.2518 108.129L79.4533 108.255L145.956 596.918C147.946 611.161 160.038 622 174.648 622.026C176.059 622.026 177.469 621.933 178.83 621.748L178.679 621.774C182.479 621.275 186.143 620.028 189.46 618.105C192.776 616.182 195.68 613.621 198.003 610.57C200.326 607.519 202.022 604.038 202.994 600.328C203.967 596.618 204.195 592.752 203.668 588.952L203.693 589.104L176.94 392.705C215.355 371.265 258.143 358.86 302.062 356.431L302.842 356.405H303.069C318.662 356.405 333.701 358.876 347.757 363.464L346.724 363.187C359.418 366.981 371.678 372.101 383.301 378.463L382.318 377.959C391.74 383.278 402.773 388.269 414.26 392.302L415.721 392.756C427.032 396.991 440.105 399.461 453.733 399.562H453.784C494.417 396.99 533.803 384.501 568.501 363.187L567.418 363.817C572.053 361.548 576.084 358.716 579.509 355.322C582.289 351.998 583.663 347.72 583.338 343.398V343.448V108.129C583.347 105.574 582.838 103.043 581.842 100.691C580.847 98.3382 579.385 96.2119 577.545 94.4405L577.57 94.3901Z" fill="white"/>
</g>
<defs>
<clipPath id="clip0_2711_73">
<rect width="529" height="605" fill="white" transform="translate(56 17)"/>
</clipPath>
</defs>
</svg>
