<svg width="640" height="640" viewBox="0 0 640 640" fill="none" xmlns="http://www.w3.org/2000/svg">
<path fill-rule="evenodd" clip-rule="evenodd" d="M320 609C479.61 609 609 479.61 609 320C609 160.39 479.61 31 320 31C160.39 31 31 160.39 31 320C31 479.61 160.39 609 320 609ZM404.009 545.775C495.594 511.684 560.833 423.461 560.833 320C560.833 186.991 453.009 79.1667 320 79.1667C190.632 79.1667 85.0878 181.17 79.4075 309.137C101.809 240.504 166.339 190.913 242.452 190.913C321.466 190.913 387.998 244.356 407.872 317.066C395.44 312.726 382.079 310.367 368.167 310.367C301.663 310.367 247.75 364.279 247.75 430.783C247.75 497.288 301.663 551.2 368.167 551.2C380.649 551.2 392.687 549.301 404.009 545.775Z" fill="white"/>
</svg>
