<svg width="640" height="640" viewBox="0 0 640 640" fill="none" xmlns="http://www.w3.org/2000/svg">
<path fill-rule="evenodd" clip-rule="evenodd" d="M553.886 71.4549C561.14 68.3958 569.08 67.3407 576.879 68.3995C584.679 69.4583 592.052 72.5922 598.232 77.475C604.413 82.3579 609.174 88.8112 612.02 96.1632C614.866 103.515 615.694 111.497 614.416 119.278L547.839 523.897C541.381 562.926 498.64 585.309 462.915 565.867C433.031 549.603 388.647 524.544 348.724 498.397C328.762 485.308 267.616 443.397 275.131 413.573C281.589 388.073 384.331 292.249 443.041 235.279C466.085 212.896 455.576 199.984 428.364 220.573C360.759 271.69 252.293 349.426 216.421 371.308C184.776 390.602 168.279 393.897 148.552 390.602C112.563 384.602 79.1861 375.308 51.9446 363.985C15.1334 348.691 16.9241 297.985 51.9153 283.22L553.886 71.4549Z" fill="white"/>
</svg>
