<svg width="640" height="640" viewBox="0 0 640 640" fill="none" xmlns="http://www.w3.org/2000/svg">
<path fill-rule="evenodd" clip-rule="evenodd" d="M36.2109 137C30.6064 137 26.0901 141.67 26.2905 147.271C34.2287 369.097 147.982 502 345.17 502H346.519C352.042 502 356.519 497.523 356.519 492V382.607C356.519 376.693 361.639 372.047 367.473 373.014C433.201 383.912 483.218 432.479 505.701 495.099C507.168 499.187 510.993 502 515.336 502H598.877C605.48 502 610.267 495.692 608.239 489.408C580.983 404.941 522.729 353.285 478.536 327.826C471.53 323.79 471.072 313.262 477.68 308.603C520.127 278.675 570.718 222.281 587.659 148.689C589.054 142.63 584.333 137 578.115 137H503.16C498.687 137 494.781 139.978 493.409 144.235C472.501 209.144 419.913 267.238 367.486 279.447C361.695 280.795 356.519 276.133 356.519 270.188V147C356.519 141.477 352.042 137 346.519 137H272.082C266.559 137 262.082 141.477 262.082 147V377.031C262.082 383.535 255.97 388.306 249.876 386.031C194.933 365.518 132.102 295.948 126.569 146.865C126.367 141.422 121.931 137 116.484 137H36.2109Z" fill="black"/>
<path d="M36.2109 137C30.6064 137 26.0901 141.67 26.2905 147.271C34.2287 369.097 147.982 502 345.17 502H346.519C352.042 502 356.519 497.523 356.519 492V382.607C356.519 376.693 361.639 372.047 367.473 373.014C433.201 383.912 483.218 432.479 505.701 495.099C507.168 499.187 510.993 502 515.336 502H598.877C605.48 502 610.267 495.692 608.239 489.408C580.983 404.941 522.729 353.285 478.536 327.826C471.53 323.79 471.072 313.262 477.68 308.603C520.127 278.675 570.718 222.281 587.659 148.689C589.054 142.63 584.333 137 578.115 137H503.16C498.687 137 494.781 139.978 493.409 144.235C472.501 209.144 419.913 267.238 367.486 279.447C361.695 280.795 356.519 276.133 356.519 270.188V147C356.519 141.477 352.042 137 346.519 137H272.082C266.559 137 262.082 141.477 262.082 147V377.031C262.082 383.535 255.97 388.306 249.876 386.031C194.933 365.518 132.102 295.948 126.569 146.865C126.367 141.422 121.931 137 116.484 137H36.2109Z" fill="white"/>
</svg>
