<svg width="640" height="640" viewBox="0 0 640 640" fill="none" xmlns="http://www.w3.org/2000/svg">
<path d="M297.103 72H82C76.4772 72 72 76.4772 72 82V297.093C72 302.616 76.4771 307.093 82 307.093H297.103C302.626 307.093 307.103 302.616 307.103 297.093V82C307.103 76.4772 302.626 72 297.103 72Z" fill="white"/>
<path d="M558 72H342.897C337.375 72 332.897 76.4772 332.897 82V297.093C332.897 302.616 337.375 307.093 342.897 307.093H558C563.523 307.093 568 302.616 568 297.093V82C568 76.4772 563.523 72 558 72Z" fill="white"/>
<path d="M297.103 332.907H82C76.4772 332.907 72 337.384 72 342.907V558C72 563.523 76.4771 568 82 568H297.103C302.626 568 307.103 563.523 307.103 558V342.907C307.103 337.384 302.626 332.907 297.103 332.907Z" fill="white"/>
<path d="M558 332.907H342.897C337.375 332.907 332.897 337.384 332.897 342.907V558C332.897 563.523 337.375 568 342.897 568H558C563.523 568 568 563.523 568 558V342.907C568 337.384 563.523 332.907 558 332.907Z" fill="white"/>
</svg>
