<svg width="640" height="640" viewBox="0 0 640 640" fill="none" xmlns="http://www.w3.org/2000/svg">
<path d="M260.8 407.571L413.126 319.5L260.8 231.429V407.571ZM600.086 177.705C603.901 191.503 606.543 209.998 608.304 233.484C610.359 256.969 611.239 277.226 611.239 294.84L613 319.5C613 383.792 608.304 431.057 600.086 461.295C592.748 487.716 575.726 504.744 549.311 512.083C535.516 515.899 510.275 518.541 471.533 520.303C433.378 522.358 398.452 523.239 366.167 523.239L319.5 525C196.524 525 119.92 520.303 89.6895 512.083C63.2745 504.744 46.2515 487.716 38.914 461.295C35.0985 447.497 32.457 429.002 30.696 405.516C28.6415 382.031 27.761 361.774 27.761 344.16L26 319.5C26 255.208 30.696 207.943 38.914 177.705C46.2515 151.284 63.2745 134.256 89.6895 126.917C103.484 123.101 128.725 120.459 167.467 118.697C205.622 116.642 240.548 115.761 272.833 115.761L319.5 114C442.477 114 519.08 118.697 549.311 126.917C575.726 134.256 592.748 151.284 600.086 177.705Z" fill="white"/>
</svg>
